Coordinates
version=1
nRows=9
nColumns=60
inDegrees=yes

Units are S.I. units (second, meters, Newtons, ...)
If the header above contains a line with 'inDegrees', this indicates whether rotational values are in degrees (yes) or radians (no).

endheader
time	pelvis_tilt	pelvis_list	pelvis_rotation	pelvis_tx	pelvis_ty	pelvis_tz	hip_flexion_r	hip_adduction_r	hip_rotation_r	knee_angle_r_beta	knee_angle_r	ankle_angle_r	subtalar_angle_r	mtp_angle_r	hip_flexion_l	hip_adduction_l	hip_rotation_l	knee_angle_l_beta	knee_angle_l	ankle_angle_l	subtalar_angle_l	mtp_angle_l	L5_S1_Flex_Ext	L5_S1_Lat_Bending	L5_S1_axial_rotation	L4_L5_Flex_Ext	L4_L5_Lat_Bending	L4_L5_axial_rotation	L3_L4_Flex_Ext	L3_L4_Lat_Bending	L3_L4_axial_rotation	L2_L3_Flex_Ext	L2_L3_Lat_Bending	L2_L3_axial_rotation	L1_L2_Flex_Ext	L1_L2_Lat_Bending	L1_L2_axial_rotation	L1_T12_Flex_Ext	L1_T12_Lat_Bending	L1_T12_axial_rotation	Abs_r3	Abs_r2	Abs_r1	Abs_t1	Abs_t2	arm_flex_r	arm_add_r	arm_rot_r	elbow_flex_r	pro_sup_r	wrist_flex_r	wrist_dev_r	arm_flex_l	arm_add_l	arm_rot_l	elbow_flex_l	pro_sup_l	wrist_flex_l	wrist_dev_l
      3.23000000	      0.77902384	     10.96553084	     91.58803449	      0.40964707	      0.93902277	      0.28923136	      0.46141584	     -3.71834434	      0.74859214	      0.32149891	    -18.42053073	     10.56658364	      0.00000000	      0.00000000	      1.41156977	     -7.25597408	     -0.94872607	      0.32200351	    -18.44944218	     11.04074485	      0.00000000	      0.00000000	     -7.39725152	      0.05952334	     -0.34170396	    -13.73743579	      0.07916604	     -0.36306045	    -12.15294451	      0.14472504	     -0.36306045	     -8.45431876	      0.14472504	     -0.29899096	     -6.86908776	      0.12137999	     -0.27763446	     -4.22678952	      0.09220165	     -0.25627797	    -52.83782785	      0.67333988	     -1.90045489	      0.00000000	      0.00000000	     24.48348921	    -27.97062501	     20.59072802	     88.20805818	     66.32570032	    -32.62224000	     53.72939343	     24.40684150	    -26.36926667	     16.25207270	     85.63301138	     68.89034647	    -25.80521076	     54.83185471
      3.24000000	      0.79463726	     11.42904385	     91.55248835	      0.40946442	      0.93990038	      0.28717465	     -0.36045636	     -3.69362808	      0.78827104	      0.31601504	    -18.10632804	     10.57659680	      0.00000000	      0.00000000	      0.63380317	     -7.27069516	     -0.98727142	      0.31843611	    -18.24504503	     11.13356354	      0.00000000	      0.00000000	     -7.36969849	      0.05701779	     -0.35343626	    -13.68626707	      0.07583366	     -0.37552603	    -12.10767765	      0.13863306	     -0.37552603	     -8.42282841	      0.13863306	     -0.30925673	     -6.84350202	      0.11627068	     -0.28716696	     -4.21104572	      0.08832056	     -0.26507720	    -52.64101935	      0.64499666	     -1.96570646	      0.00000000	      0.00000000	     24.08387015	    -28.22997727	     20.07794607	     89.47520300	     66.89047690	    -32.71459152	     55.32787988	     23.60076167	    -26.28180367	     15.26407790	     87.09589029	     69.68279243	    -25.96778315	     56.48658600
      3.25000000	      0.79191632	     11.64507914	     91.51527472	      0.40932031	      0.94038779	      0.28514213	     -0.89673455	     -3.71619940	      0.68458620	      0.31033383	    -17.78081844	     10.59518607	      0.00000000	      0.00000000	      0.11323082	     -7.27162322	     -1.14127422	      0.31403165	    -17.99268797	     11.19366617	      0.00000000	      0.00000000	     -7.28148690	      0.05172392	     -0.36262364	    -13.52244932	      0.06879282	     -0.38528762	    -11.96275483	      0.12576154	     -0.38528762	     -8.32201138	      0.12576154	     -0.31729569	     -6.76158873	      0.10547542	     -0.29463171	     -4.16064161	      0.08012035	     -0.27196773	    -52.01093277	      0.58511134	     -2.01680390	      0.00000000	      0.00000000	     23.84821124	    -28.48160917	     19.86984214	     90.22099905	     67.10551168	    -32.74964958	     56.55784895	     23.05432695	    -26.30538882	     14.82785166	     88.04543940	     70.02223051	    -26.25289647	     57.73349143
      3.26000000	      0.77960446	     11.70991049	     91.47349381	      0.40915059	      0.94065158	      0.28318087	     -1.22327169	     -3.76170631	      0.51603475	      0.30605499	    -17.53565899	     10.64755698	      0.00000000	      0.00000000	     -0.20446932	     -7.25233327	     -1.31390965	      0.31063378	    -17.79800472	     11.25686764	      0.00000000	      0.00000000	     -7.15599560	      0.04876284	     -0.35795052	    -13.28939943	      0.06485458	     -0.38032243	    -11.75658517	      0.11856198	     -0.38032243	     -8.17858737	      0.11856198	     -0.31320671	     -6.64505751	      0.09943719	     -0.29083480	     -4.08893589	      0.07553364	     -0.26846289	    -51.11456097	      0.55161503	     -1.99081342	      0.00000000	      0.00000000	     23.70909489	    -28.85544474	     19.89831110	     90.69396995	     67.02082228	    -32.81802254	     57.43159356	     22.71278619	    -26.36733329	     14.82558918	     88.61492536	     70.02878354	    -26.64069199	     58.56359271
      3.27000000	      0.79189156	     11.78964788	     91.43669217	      0.40896924	      0.94089140	      0.28142947	     -1.56386967	     -3.77464748	      0.41971870	      0.30093573	    -17.24234695	     10.69290466	      0.00000000	      0.00000000	     -0.53053158	     -7.26014865	     -1.42953687	      0.30687847	    -17.58284144	     11.33245106	      0.00000000	      0.00000000	     -7.05624907	      0.04682463	     -0.35647367	    -13.10416015	      0.06227676	     -0.37875327	    -11.59271160	      0.11384941	     -0.37875327	     -8.06458706	      0.11384941	     -0.31191446	     -6.55243289	      0.09548479	     -0.28963486	     -4.03194072	      0.07253135	     -0.26735525	    -50.40208149	      0.52968960	     -1.98259960	      0.00000000	      0.00000000	     23.64710204	    -29.26643566	     19.83178103	     91.36607868	     66.97226885	    -32.89595630	     58.54884659	     22.45425119	    -26.50254653	     14.77944303	     89.46873229	     70.11024021	    -27.14126449	     59.70834662
      3.28000000	      0.82478102	     11.99659886	     91.43098818	      0.40884128	      0.94128028	      0.27981532	     -2.03749932	     -3.74337110	      0.38411729	      0.29637442	    -16.98100367	     10.70277917	      0.00000000	      0.00000000	     -0.96190098	     -7.29364043	     -1.48078315	      0.30403179	    -17.41973827	     11.40468413	      0.00000000	      0.00000000	     -6.99115528	      0.04635635	     -0.36008018	    -12.98327446	      0.06165394	     -0.38258519	    -11.48576900	      0.11271082	     -0.38258519	     -7.99019137	      0.11271082	     -0.31507016	     -6.49198679	      0.09452986	     -0.29256515	     -3.99474612	      0.07180598	     -0.27006013	    -49.93712302	      0.52439225	     -2.00265793	      0.00000000	      0.00000000	     23.61429247	    -29.58118579	     19.60637473	     92.12368654	     67.04160336	    -32.91169739	     59.73793990	     22.25114371	    -26.67834086	     14.62253703	     90.51556814	     70.32514247	    -27.65752461	     61.01135169
      3.29000000	      0.85265679	     12.36661473	     91.44339996	      0.40871278	      0.94193335	      0.27826885	     -2.69594880	     -3.70652613	      0.34103027	      0.29157646	    -16.70610061	     10.66534967	      0.00000000	      0.00000000	     -1.56092026	     -7.33540551	     -1.50279464	      0.30143787	    -17.27111766	     11.47064949	      0.00000000	      0.00000000	     -6.96851372	      0.04510828	     -0.37195561	    -12.94122683	      0.05999401	     -0.39520284	    -11.44857119	      0.10967626	     -0.39520284	     -7.96431433	      0.10967626	     -0.32546116	     -6.47096184	      0.09198480	     -0.30221394	     -3.98180874	      0.06987272	     -0.27896671	    -49.77539667	      0.51027384	     -2.06870554	      0.00000000	      0.00000000	     23.62614415	    -29.74432955	     19.15116425	     92.91403880	     67.31520194	    -32.76348536	     61.02384094	     22.07467916	    -26.80709142	     14.26915444	     91.72109038	     70.74993067	    -28.14712028	     62.45957787
      3.30000000	      0.84768534	     12.55297928	     91.46882935	      0.40850327	      0.94232555	      0.27674169	     -3.13381225	     -3.72551167	      0.21790994	      0.28750737	    -16.47295870	     10.64337631	      0.00000000	      0.00000000	     -1.94887270	     -7.33513133	     -1.57705073	      0.29858725	    -17.10778936	     11.50194607	      0.00000000	      0.00000000	     -6.90258605	      0.04469387	     -0.37846083	    -12.81879256	      0.05944285	     -0.40211463	    -11.34025863	      0.10866869	     -0.40211463	     -7.88896560	      0.10866869	     -0.33115323	     -6.40974141	      0.09113975	     -0.30749943	     -3.94413767	      0.06923081	     -0.28384562	    -49.30448193	      0.50558604	     -2.10488561	      0.00000000	      0.00000000	     23.74533855	    -29.95325469	     18.91200101	     93.38208716	     67.37354159	    -32.62224662	     62.02024635	     22.03943917	    -26.87063081	     14.14958196	     92.49231963	     70.98523682	    -28.58773666	     63.57249185
      3.31000000	      0.81423364	     12.61865722	     91.49973987	      0.40810785	      0.94253759	      0.27529281	     -3.40257059	     -3.79463927	      0.10428088	      0.28460231	    -16.30651112	     10.64530653	      0.00000000	      0.00000000	     -2.17568892	     -7.27916341	     -1.65861901	      0.29644966	    -16.98531424	     11.52751991	      0.00000000	      0.00000000	     -6.81478650	      0.04752441	     -0.38089432	    -12.65574001	      0.06320746	     -0.40470021	    -11.19601274	      0.11555085	     -0.40470021	     -7.78861949	      0.11555085	     -0.33328253	     -6.32821074	      0.09691178	     -0.30947663	     -3.89396901	      0.07361531	     -0.28567074	    -48.67733849	      0.53760562	     -2.11841993	      0.00000000	      0.00000000	     23.97098224	    -30.27075275	     18.82361051	     93.68905055	     67.27666375	    -32.48833484	     62.78640468	     22.10089298	    -26.86553699	     14.19977033	     93.00872771	     71.08414901	    -29.04770299	     64.37796409
